<svg width="76" height="15" viewBox="0 0 76 15" fill="none" xmlns="http://www.w3.org/2000/svg">
<path d="M2.72301 12L0.225852 3.27273H2.24148L3.68608 9.33665H3.75852L5.35227 3.27273H7.07812L8.66761 9.34943H8.74432L10.1889 3.27273H12.2045L9.70739 12H7.90909L6.24716 6.29403H6.17898L4.52131 12H2.72301ZM14.3214 12.1236C13.9038 12.1236 13.5316 12.0511 13.2049 11.9062C12.8782 11.7585 12.6197 11.5412 12.4293 11.2543C12.2418 10.9645 12.1481 10.6037 12.1481 10.1719C12.1481 9.80824 12.2148 9.50284 12.3484 9.25568C12.4819 9.00852 12.6637 8.80966 12.8938 8.65909C13.1239 8.50852 13.3853 8.39489 13.6779 8.31818C13.9734 8.24148 14.283 8.1875 14.6069 8.15625C14.9876 8.11648 15.2944 8.07955 15.5273 8.04545C15.7603 8.00852 15.9293 7.95455 16.0344 7.88352C16.1396 7.8125 16.1921 7.70739 16.1921 7.56818V7.54261C16.1921 7.27273 16.1069 7.06392 15.9364 6.91619C15.7688 6.76847 15.5302 6.6946 15.2205 6.6946C14.8938 6.6946 14.6339 6.76705 14.4407 6.91193C14.2475 7.05398 14.1197 7.23295 14.0572 7.44886L12.3782 7.3125C12.4634 6.91477 12.631 6.57102 12.881 6.28125C13.131 5.98864 13.4535 5.7642 13.8484 5.60795C14.2461 5.44886 14.7063 5.36932 15.229 5.36932C15.5927 5.36932 15.9407 5.41193 16.2731 5.49716C16.6083 5.58239 16.9052 5.71449 17.1637 5.89347C17.4251 6.07244 17.631 6.30256 17.7816 6.58381C17.9322 6.86222 18.0075 7.19602 18.0075 7.58523V12H16.2859V11.0923H16.2347C16.1296 11.2969 15.989 11.4773 15.8129 11.6335C15.6367 11.7869 15.4251 11.9077 15.1779 11.9957C14.9308 12.081 14.6452 12.1236 14.3214 12.1236ZM14.8413 10.8707C15.1083 10.8707 15.3441 10.8182 15.5487 10.7131C15.7532 10.6051 15.9137 10.4602 16.0302 10.2784C16.1467 10.0966 16.2049 9.89062 16.2049 9.66051V8.96591C16.1481 9.00284 16.07 9.03693 15.9705 9.06818C15.8739 9.09659 15.7646 9.12358 15.6424 9.14915C15.5202 9.17187 15.3981 9.19318 15.2759 9.21307C15.1538 9.23011 15.043 9.24574 14.9435 9.25994C14.7305 9.29119 14.5444 9.34091 14.3853 9.40909C14.2262 9.47727 14.1026 9.5696 14.0146 9.68608C13.9265 9.79972 13.8825 9.94176 13.8825 10.1122C13.8825 10.3594 13.9719 10.5483 14.1509 10.679C14.3327 10.8068 14.5629 10.8707 14.8413 10.8707ZM24.8619 7.32102L23.1999 7.4233C23.1715 7.28125 23.1104 7.15341 23.0167 7.03977C22.9229 6.9233 22.7994 6.83097 22.646 6.76278C22.4954 6.69176 22.315 6.65625 22.1048 6.65625C21.8235 6.65625 21.5863 6.71591 21.3931 6.83523C21.1999 6.9517 21.1033 7.10795 21.1033 7.30398C21.1033 7.46023 21.1658 7.59233 21.2908 7.70028C21.4158 7.80824 21.6303 7.89489 21.9343 7.96023L23.119 8.19886C23.7553 8.32955 24.2298 8.53977 24.5423 8.82955C24.8548 9.11932 25.011 9.5 25.011 9.97159C25.011 10.4006 24.8846 10.777 24.6317 11.1009C24.3817 11.4247 24.038 11.6776 23.6005 11.8594C23.1658 12.0384 22.6644 12.1278 22.0962 12.1278C21.2298 12.1278 20.5394 11.9474 20.0252 11.5866C19.5138 11.223 19.2141 10.7287 19.1261 10.1037L20.9116 10.0099C20.9656 10.2741 21.0962 10.4759 21.3036 10.6151C21.511 10.7514 21.7766 10.8196 22.1005 10.8196C22.4187 10.8196 22.6744 10.7585 22.8675 10.6364C23.0636 10.5114 23.163 10.3509 23.1658 10.1548C23.163 9.99006 23.0934 9.85511 22.957 9.75C22.8207 9.64205 22.6104 9.55966 22.3263 9.50284L21.1928 9.27699C20.5536 9.14915 20.0778 8.92756 19.7653 8.61222C19.4556 8.29687 19.3008 7.89489 19.3008 7.40625C19.3008 6.9858 19.4144 6.62358 19.6417 6.3196C19.8718 6.01562 20.1942 5.78125 20.609 5.61648C21.0266 5.4517 21.5153 5.36932 22.0749 5.36932C22.9016 5.36932 23.5522 5.54403 24.0266 5.89347C24.5039 6.2429 24.7823 6.71875 24.8619 7.32102ZM29.6357 5.45455V6.81818H25.6939V5.45455H29.6357ZM26.5888 3.88636H28.4041V9.98864C28.4041 10.1562 28.4297 10.2869 28.4808 10.3807C28.532 10.4716 28.603 10.5355 28.6939 10.5724C28.7876 10.6094 28.8956 10.6278 29.0178 10.6278C29.103 10.6278 29.1882 10.6207 29.2734 10.6065C29.3587 10.5895 29.424 10.5767 29.4695 10.5682L29.755 11.919C29.6641 11.9474 29.5362 11.9801 29.3714 12.017C29.2067 12.0568 29.0064 12.081 28.7706 12.0895C28.3331 12.1065 27.9496 12.0483 27.62 11.9148C27.2933 11.7812 27.0391 11.5739 26.8572 11.2926C26.6754 11.0114 26.5859 10.6562 26.5888 10.2273V3.88636ZM33.7308 12.1278C33.0575 12.1278 32.478 11.9915 31.9922 11.7188C31.5092 11.4432 31.1371 11.054 30.8757 10.5511C30.6143 10.0455 30.4837 9.44744 30.4837 8.7571C30.4837 8.08381 30.6143 7.4929 30.8757 6.98438C31.1371 6.47585 31.505 6.07955 31.9794 5.79545C32.4567 5.51136 33.0163 5.36932 33.6584 5.36932C34.0902 5.36932 34.4922 5.43892 34.8643 5.57812C35.2393 5.71449 35.5661 5.92045 35.8445 6.19602C36.1257 6.47159 36.3445 6.81818 36.5007 7.2358C36.657 7.65057 36.7351 8.13636 36.7351 8.69318V9.19176H31.2081V8.06676H35.0263C35.0263 7.8054 34.9695 7.57386 34.8558 7.37216C34.7422 7.17045 34.5845 7.01278 34.3828 6.89915C34.1839 6.78267 33.9524 6.72443 33.6882 6.72443C33.4126 6.72443 33.1683 6.78835 32.9553 6.91619C32.745 7.04119 32.5803 7.21023 32.4609 7.4233C32.3416 7.63352 32.2805 7.8679 32.2777 8.12642V9.19602C32.2777 9.51989 32.3374 9.79972 32.4567 10.0355C32.5788 10.2713 32.7507 10.4531 32.9723 10.581C33.1939 10.7088 33.4567 10.7727 33.7607 10.7727C33.9624 10.7727 34.147 10.7443 34.3146 10.6875C34.4822 10.6307 34.6257 10.5455 34.745 10.4318C34.8643 10.3182 34.9553 10.179 35.0178 10.0142L36.6967 10.125C36.6115 10.5284 36.4368 10.8807 36.1726 11.1818C35.9112 11.4801 35.5732 11.7131 35.1584 11.8807C34.7464 12.0455 34.2706 12.1278 33.7308 12.1278Z" fill="#57AB45"/>
<path d="M43.4929 5.78267C43.4588 5.43892 43.3125 5.17187 43.054 4.98153C42.7955 4.79119 42.4446 4.69602 42.0014 4.69602C41.7003 4.69602 41.446 4.73864 41.2386 4.82386C41.0313 4.90625 40.8722 5.02131 40.7614 5.16903C40.6534 5.31676 40.5994 5.48438 40.5994 5.67188C40.5938 5.82812 40.6264 5.96449 40.6974 6.08097C40.7713 6.19744 40.8722 6.2983 41 6.38352C41.1278 6.46591 41.2756 6.53835 41.4432 6.60085C41.6108 6.66051 41.7898 6.71165 41.9801 6.75426L42.7642 6.94176C43.1449 7.02699 43.4943 7.14062 43.8125 7.28267C44.1307 7.42472 44.4063 7.59943 44.6392 7.80682C44.8722 8.0142 45.0526 8.25852 45.1804 8.53977C45.3111 8.82102 45.3778 9.14347 45.3807 9.5071C45.3778 10.0412 45.2415 10.5043 44.9716 10.8963C44.7045 11.2855 44.3182 11.5881 43.8125 11.804C43.3097 12.017 42.7031 12.1236 41.9929 12.1236C41.2884 12.1236 40.6747 12.0156 40.152 11.7997C39.6321 11.5838 39.2259 11.2642 38.9332 10.8409C38.6435 10.4148 38.4915 9.88778 38.4773 9.25994H40.2628C40.2827 9.55256 40.3665 9.79687 40.5142 9.9929C40.6648 10.1861 40.8651 10.3324 41.1151 10.4318C41.3679 10.5284 41.6534 10.5767 41.9716 10.5767C42.2841 10.5767 42.5554 10.5312 42.7855 10.4403C43.0185 10.3494 43.1989 10.223 43.3267 10.0611C43.4545 9.89915 43.5185 9.71307 43.5185 9.50284C43.5185 9.30682 43.4602 9.14205 43.3438 9.00852C43.2301 8.875 43.0625 8.76136 42.8409 8.66761C42.6222 8.57386 42.3537 8.48864 42.0355 8.41193L41.0852 8.1733C40.3494 7.99432 39.7685 7.71449 39.3423 7.33381C38.9162 6.95312 38.7045 6.44034 38.7074 5.79545C38.7045 5.26705 38.8452 4.8054 39.1293 4.41051C39.4162 4.01562 39.8097 3.70739 40.3097 3.4858C40.8097 3.2642 41.3778 3.15341 42.0142 3.15341C42.6619 3.15341 43.2273 3.2642 43.7102 3.4858C44.196 3.70739 44.5739 4.01562 44.8438 4.41051C45.1136 4.8054 45.2528 5.26278 45.2614 5.78267H43.4929ZM49.5451 12.1278C48.8832 12.1278 48.3107 11.9872 47.8278 11.706C47.3477 11.4219 46.9769 11.027 46.7156 10.5213C46.4542 10.0128 46.3235 9.4233 46.3235 8.75284C46.3235 8.0767 46.4542 7.4858 46.7156 6.98011C46.9769 6.47159 47.3477 6.0767 47.8278 5.79545C48.3107 5.51136 48.8832 5.36932 49.5451 5.36932C50.207 5.36932 50.7781 5.51136 51.2582 5.79545C51.7411 6.0767 52.1133 6.47159 52.3746 6.98011C52.636 7.4858 52.7667 8.0767 52.7667 8.75284C52.7667 9.4233 52.636 10.0128 52.3746 10.5213C52.1133 11.027 51.7411 11.4219 51.2582 11.706C50.7781 11.9872 50.207 12.1278 49.5451 12.1278ZM49.5536 10.7216C49.8548 10.7216 50.1062 10.6364 50.3079 10.4659C50.5096 10.2926 50.6616 10.0568 50.7638 9.75852C50.869 9.46023 50.9215 9.12074 50.9215 8.74006C50.9215 8.35938 50.869 8.01989 50.7638 7.72159C50.6616 7.4233 50.5096 7.1875 50.3079 7.0142C50.1062 6.84091 49.8548 6.75426 49.5536 6.75426C49.2496 6.75426 48.994 6.84091 48.7866 7.0142C48.582 7.1875 48.4272 7.4233 48.3221 7.72159C48.2198 8.01989 48.1687 8.35938 48.1687 8.74006C48.1687 9.12074 48.2198 9.46023 48.3221 9.75852C48.4272 10.0568 48.582 10.2926 48.7866 10.4659C48.994 10.6364 49.2496 10.7216 49.5536 10.7216ZM53.9471 12V5.45455H55.707V6.59659H55.7752C55.8945 6.19034 56.0948 5.88352 56.3761 5.67614C56.6573 5.46591 56.9812 5.3608 57.3477 5.3608C57.4386 5.3608 57.5366 5.36648 57.6417 5.37784C57.7468 5.3892 57.8391 5.40483 57.9187 5.42472V7.03551C57.8335 7.00994 57.7156 6.98722 57.565 6.96733C57.4144 6.94744 57.2766 6.9375 57.1516 6.9375C56.8846 6.9375 56.646 6.99574 56.4357 7.11222C56.2283 7.22585 56.0636 7.38494 55.9414 7.58949C55.8221 7.79403 55.7624 8.02983 55.7624 8.29688V12H53.9471ZM62.6669 5.45455V6.81818H58.7251V5.45455H62.6669ZM59.62 3.88636H61.4354V9.98864C61.4354 10.1562 61.4609 10.2869 61.5121 10.3807C61.5632 10.4716 61.6342 10.5355 61.7251 10.5724C61.8189 10.6094 61.9268 10.6278 62.049 10.6278C62.1342 10.6278 62.2195 10.6207 62.3047 10.6065C62.3899 10.5895 62.4553 10.5767 62.5007 10.5682L62.7862 11.919C62.6953 11.9474 62.5675 11.9801 62.4027 12.017C62.2379 12.0568 62.0376 12.081 61.8018 12.0895C61.3643 12.1065 60.9808 12.0483 60.6513 11.9148C60.3246 11.7812 60.0703 11.5739 59.8885 11.2926C59.7067 11.0114 59.6172 10.6562 59.62 10.2273V3.88636ZM66.7621 12.1278C66.0888 12.1278 65.5092 11.9915 65.0234 11.7188C64.5405 11.4432 64.1683 11.054 63.907 10.5511C63.6456 10.0455 63.5149 9.44744 63.5149 8.7571C63.5149 8.08381 63.6456 7.4929 63.907 6.98438C64.1683 6.47585 64.5362 6.07955 65.0107 5.79545C65.4879 5.51136 66.0476 5.36932 66.6896 5.36932C67.1214 5.36932 67.5234 5.43892 67.8956 5.57812C68.2706 5.71449 68.5973 5.92045 68.8757 6.19602C69.157 6.47159 69.3757 6.81818 69.532 7.2358C69.6882 7.65057 69.7663 8.13636 69.7663 8.69318V9.19176H64.2393V8.06676H68.0575C68.0575 7.8054 68.0007 7.57386 67.8871 7.37216C67.7734 7.17045 67.6158 7.01278 67.4141 6.89915C67.2152 6.78267 66.9837 6.72443 66.7195 6.72443C66.4439 6.72443 66.1996 6.78835 65.9865 6.91619C65.7763 7.04119 65.6115 7.21023 65.4922 7.4233C65.3729 7.63352 65.3118 7.8679 65.3089 8.12642V9.19602C65.3089 9.51989 65.3686 9.79972 65.4879 10.0355C65.6101 10.2713 65.782 10.4531 66.0036 10.581C66.2251 10.7088 66.4879 10.7727 66.7919 10.7727C66.9936 10.7727 67.1783 10.7443 67.3459 10.6875C67.5135 10.6307 67.657 10.5455 67.7763 10.4318C67.8956 10.3182 67.9865 10.179 68.049 10.0142L69.728 10.125C69.6428 10.5284 69.468 10.8807 69.2038 11.1818C68.9425 11.4801 68.6044 11.7131 68.1896 11.8807C67.7777 12.0455 67.3018 12.1278 66.7621 12.1278ZM70.951 12V5.45455H72.7109V6.59659H72.7791C72.8984 6.19034 73.0987 5.88352 73.38 5.67614C73.6612 5.46591 73.9851 5.3608 74.3516 5.3608C74.4425 5.3608 74.5405 5.36648 74.6456 5.37784C74.7507 5.3892 74.843 5.40483 74.9226 5.42472V7.03551C74.8374 7.00994 74.7195 6.98722 74.5689 6.96733C74.4183 6.94744 74.2805 6.9375 74.1555 6.9375C73.8885 6.9375 73.6499 6.99574 73.4396 7.11222C73.2322 7.22585 73.0675 7.38494 72.9453 7.58949C72.826 7.79403 72.7663 8.02983 72.7663 8.29688V12H70.951Z" fill="black"/>
</svg>
